<svg xmlns="http://www.w3.org/2000/svg" viewBox="0 0 32 32">
  <!-- Row 1 -->
  <rect x="1" y="1" width="6" height="6" fill="#0000AA"/>
  <rect x="9" y="1" width="6" height="6" fill="#0000AA"/>
  <rect x="17" y="1" width="6" height="6" fill="#AA0000"/>
  <rect x="25" y="1" width="6" height="6" fill="#555"/>
  <!-- Row 2 -->
  <rect x="1" y="9" width="6" height="6" fill="#0000AA"/>
  <rect x="9" y="9" width="6" height="6" fill="#555"/>
  <rect x="17" y="9" width="6" height="6" fill="#AA0000"/>
  <rect x="25" y="9" width="6" height="6" fill="#00AA00"/>
  <!-- Row 3 -->
  <rect x="1" y="17" width="6" height="6" fill="#AA0000"/>
  <rect x="9" y="17" width="6" height="6" fill="#555"/>
  <rect x="17" y="17" width="6" height="6" fill="#0000AA"/>
  <rect x="25" y="17" width="6" height="6" fill="#AA0000"/>
  <!-- Row 4 -->
  <rect x="1" y="25" width="6" height="6" fill="#555"/>
  <rect x="9" y="25" width="6" height="6" fill="#AA0000"/>
  <rect x="17" y="25" width="6" height="6" fill="#00AA00"/>
  <rect x="25" y="25" width="6" height="6" fill="#555"/>
</svg>
